<?xml version="1.0" encoding="utf-8"?>
<!-- Generator: Adobe Illustrator 27.5.0, SVG Export Plug-In . SVG Version: 6.00 Build 0)  -->
<svg version="1.1" id="Layer_1" xmlns="http://www.w3.org/2000/svg" xmlns:xlink="http://www.w3.org/1999/xlink" x="0px" y="0px"
	 viewBox="0 0 2213.554 2000" style="enable-background:new 0 0 2213.554 2000;" xml:space="preserve">
<g>
	<rect y="0" style="fill:#FFFFFF;" width="2213.554" height="2000"/>
	<g>
		<path style="fill:#EBF3FA;" d="M315.779,1862.7c0,0-327.499-538.598-110.256-954.639
			C917.76-455.935,2026.319,261.617,1891.608,1068.52c-65.191,390.484,198.4,404.678,64.09,795.006L315.779,1862.7z"/>
		<g>
			<path style="fill:#FFFFFF;" d="M159.451,1188.591c-2.855,0.005-4.774-3.07-3.628-5.814l0.001-0.001
				c0.262-0.628,4.296-20.549,15.99-34.818c14.675-17.904,33.604-21.669,50.71-20.56c1.256,0.081,2.47-0.473,3.27-1.492
				c8.952-11.403,36.885-50.359,74.808-55.703c19.484-2.744,39.967,7.247,57.19,20.665c0.646,0.502,1.415,0.795,2.218,0.826
				c11.892,0.453,61.616-5.194,87.308,25.539c12.733,15.232,16.738,44.08,13.896,67.233l0,0c-0.254,2.068-1.929,3.616-3.915,3.62
				L159.451,1188.591z M219.636,1135.601c-23.989,0-41.533,23.407-50.291,38.352c-1.621,2.766,0.285,6.322,3.38,6.316l277.329-0.472
				c2.098-0.004,3.852-1.725,3.944-3.925c0.724-17.364-3.841-32.061-13.617-43.764c-26.4-31.608-82.418-32.178-82.981-32.18h-0.002
				c-0.878-0.004-1.729-0.313-2.421-0.88l-0.003-0.002c-16.047-13.181-33.338-18.58-51.399-16.042
				c-41.29,5.798-73.834,51.005-74.158,51.461l-0.001,0.001c-0.874,1.231-2.324,1.855-3.769,1.622h-0.002
				C223.602,1135.759,221.594,1135.601,219.636,1135.601z"/>
		</g>
		<g>
			<path style="fill:#FFFFFF;" d="M1577.362,1406.336c-2.119-0.004-3.906-1.578-4.177-3.681l0,0
				c-3.032-23.543,1.241-52.877,14.827-68.365c27.412-31.251,80.464-25.509,93.152-25.969c0.857-0.031,1.678-0.328,2.367-0.839
				c18.376-13.644,40.23-23.804,61.019-21.013c40.462,5.434,70.265,45.047,79.816,56.642c0.854,1.037,2.149,1.6,3.489,1.517
				c18.251-1.127,38.447,2.701,54.104,20.907c12.477,14.51,16.781,34.766,17.06,35.405l0,0.001c1.222,2.789-0.825,5.917-3.871,5.912
				L1577.362,1406.336z M1824.523,1353.464h-0.002c-1.542,0.237-3.089-0.398-4.021-1.649l-0.001-0.001
				c-0.345-0.464-35.068-46.432-79.122-52.328c-19.269-2.58-37.718,2.91-54.839,16.313l-0.003,0.002
				c-0.737,0.577-1.646,0.891-2.583,0.895h-0.002c-0.601,0.002-60.368,0.582-88.535,32.722
				c-10.43,11.901-15.301,26.845-14.528,44.501c0.098,2.237,1.969,3.987,4.208,3.991l295.893,0.48
				c3.302,0.005,5.335-3.61,3.606-6.423c-9.344-15.198-28.063-38.998-53.658-38.998
				C1828.845,1352.968,1826.703,1353.128,1824.523,1353.464z"/>
		</g>
		<g>
			<path style="fill:#FFFFFF;" d="M1194.224,460.333c-3.99,0.006-6.672-3.779-5.071-7.154l0.001-0.001
				c0.367-0.773,6.003-25.287,22.346-42.847c20.508-22.033,46.961-26.666,70.866-25.301c1.756,0.1,3.451-0.582,4.57-1.836
				c12.51-14.033,51.547-61.972,104.543-68.548c27.229-3.377,55.853,8.918,79.922,25.43c0.902,0.618,1.977,0.978,3.1,1.016
				c16.619,0.557,86.108-6.392,122.012,31.428c17.794,18.744,23.391,54.244,19.42,82.736l0,0c-0.355,2.545-2.696,4.45-5.472,4.455
				L1194.224,460.333z M1278.331,395.124c-33.525,0-58.042,28.804-70.281,47.196c-2.265,3.404,0.398,7.779,4.723,7.773
				l387.562-0.581c2.932-0.005,5.383-2.124,5.511-4.83c1.012-21.368-5.369-39.453-19.029-53.856
				c-36.894-38.897-115.177-39.598-115.964-39.601h-0.002c-1.226-0.004-2.417-0.385-3.383-1.083l-0.004-0.002
				c-22.426-16.22-46.589-22.864-71.828-19.742c-57.703,7.134-103.182,62.766-103.634,63.327l-0.002,0.001
				c-1.221,1.514-3.247,2.283-5.267,1.996h-0.003C1283.874,395.318,1281.068,395.124,1278.331,395.124z"/>
		</g>
		<g>
			<g>
				<path style="fill:#BC6E39;" d="M778.834,877.968c0,0,104.1,58.994,138.233,90.07c0,0,125.731,31.197,134.12,33.993
					c8.392,2.796-2.387,29.871-2.387,29.871s-118.051-1.179-154.965-14.95c-36.917-13.771-160.124-55.22-170.233-95.471
					C713.495,881.231,778.834,877.968,778.834,877.968z"/>
				<path style="fill:#BC6E39;" d="M1051.187,1002.03c0,0,24.693-26.193,32.197-21.793c7.503,4.396,19.137,31.412-6.009,43.488
					c-18.618,8.941-28.575,8.176-28.575,8.176L1051.187,1002.03z"/>
				<path style="fill:#A05A2B;" d="M1078.986,980.14c-2.159,0.645-4.686,2.035-7.325,3.825c-2.957,3.088,0.018,5.696,0.524,7.125
					c0.547,1.544-2.967,8.826-0.683,12.299c1.556,2.368,3.557,3.716,9.487,7.011C1083.395,995.732,1079.731,982.433,1078.986,980.14
					z"/>
				<polygon style="fill:#BC6E39;" points="621.37,1672.829 597.029,1802.429 552.843,1802.429 541.422,1644.276 				"/>
				<polygon style="fill:#BC6E39;" points="820.448,1661.178 848.069,1803.994 809.343,1805.6 735.714,1666.376 				"/>
				<path style="fill:#B2443B;" d="M597.956,1797.496c0,0,10.499,19.019,30.316,23.334c12.482,2.719,23.17,9.215,29.82,18.326
					c5.622,7.697,0.185,18.524-9.347,18.524H548.159c-8.566,0-15.249-7.392-14.392-15.914c0.748-7.451,1.532-16.129,1.873-22.783
					c0.744-14.526,16.402-27.664,16.402-27.664s13.854,7.846,19.183,8.747C582.824,1802.032,597.956,1797.496,597.956,1797.496z"/>
				<path style="fill:#B2443B;" d="M847.052,1797.504c0,0,10.393,19.075,30.184,23.507c12.466,2.79,23.117,9.345,29.714,18.491
					c5.578,7.732,0.08,18.527-9.452,18.472l-100.584-0.572c-8.565-0.05-15.207-7.477-14.301-15.995
					c0.79-7.449,1.625-16.12,2.003-22.774c0.825-14.521,16.56-27.569,16.56-27.569s13.809,7.924,19.132,8.855
					C831.897,1801.949,847.052,1797.504,847.052,1797.504z"/>
				<path style="fill:#FFB93E;" d="M843.361,1667.111c0,0-41.844,13.062-88.014,17.238c-43.471,3.963-90.777,0.024-110.714-30.087
					c-5.781-8.714-9.037-23.854-10.407-43.426c-8.33-119.773,54.949-405.743,54.949-405.743h73.836
					C763.012,1210.982,843.361,1667.111,843.361,1667.111z"/>
				<path style="fill:#FFA412;" d="M755.347,1684.349c-43.471,3.963-90.777,0.024-110.714-30.087
					c-5.781-8.714-9.037-23.854-10.407-43.426c0.064-0.215,0.107-0.431,0.172-0.643c11.777-43.899,43.899-315.864,43.899-315.864
					S788.71,1585.222,755.347,1684.349z"/>
				<path style="fill:#FFB93E;" d="M527.504,1221.696c0,0-33.193,222.712-48.183,460.413c0,0,104.208,42.828,200.934,8.565
					l17.672-453.263L527.504,1221.696z"/>
				<path style="fill:#2C3A64;" d="M735.284,636.201c10.291-15.436-21-31.901-29.538-23.669c-1.97,1.9-3.498,2.526-4.867,2.158
					c-1.284-1.364-2.659-2.772-4.121-4.208c-3.061-5.038-6.821-13.927-14.605-23.677c-14.788-18.523-25.663-17.088-33.017-13.167
					c-7.355,3.921-37.526-7.415-39.492-12.56c-1.966-5.145-41.702-5.145-41.702,16.465c0,6.845-3.828,16.808-15.834,18.767
					c-28.27,4.611-41.004,31.658-34.394,38.862c6.609,7.204-0.594,24.268-6.769,35.288c-6.174,11.02-10.132,15.045,6.769,31.556
					c16.9,16.511,19.572,23.524,14.477,31.962c-9.68,16.033,2.06,31.727,11.685,28.799c9.625-2.927,22.406-2.058,24.067,12.349
					c1.66,14.407,18.577,11.931,29.311,9.224c10.734-2.707,14.381-13.384,24.237,2.074c9.856,15.458,34.62,10.269,44.878,0
					c10.258-10.269,25.081-34.689,34.649-43.06s20.916-48.82,20.916-48.82c17.466,5.46,9.234-11.435,13.35-24.083
					C739.4,657.812,724.993,651.638,735.284,636.201z"/>
				<g>
					<path style="fill:#BC6E39;" d="M701.018,831.619l-82.83,49.203l-20.934-58.307c0,0,9.6-21.246,12.391-55.233
						c1.163-14.29,1.139-30.835-1.338-49.002l72.027,31.279c0,0-1.252,6.557-1.76,16.146c-0.533,10.362-0.182,24.263,3.58,37.25
						C685.393,814.102,691.141,824.577,701.018,831.619z"/>
					<path style="fill:#A05A2B;" d="M682.153,802.955c-39.732,1.461-72.509-35.673-72.509-35.673l68.929-1.577
						C678.039,776.067,678.391,789.968,682.153,802.955z"/>
					<path style="fill:#BC6E39;" d="M699.987,779.63c0,0-77.792,25.923-109.087-35.257c-33.775-66.027-4.609-117.552,22.048-122.599
						c53.156-10.064,85.578,8.387,96.367,29.383C720.104,672.153,742.935,765.717,699.987,779.63z"/>
					<path style="fill:#FFFFFF;" d="M666.369,746.204c0,0,3.83,7.952,24.41,2.043c0,0,17.279-4.958,14.706-14.058
						C705.484,734.189,687.046,731.387,666.369,746.204z"/>
				</g>
				<path style="fill:#35488B;" d="M805.697,889.077l-66.023-53.653l0.006,0.045c-7.8-6.706-17.757-11.525-30.393-13.126
					c-4.656-0.591-14.439-2.402-19.896-3.06c0.924,12.298,0.915,22.225-20.571,26.011c-28.613,5.03-56.645-13.251-70.258-26.011
					c-22.393,4.23-33.585,7.983-51.409,15.037c-10.273,4.072-18.448,11.464-23.548,20.617c-4.638,8.316-6.736,18.056-5.581,28.009
					l21.984,189.449c0,0-26.284,161.315-21.77,161.743c30.123,2.878,161.884,29.324,256.077-0.783
					c15.209-4.871-21.322-90.274-13.991-264.987C812.573,937.05,805.697,889.077,805.697,889.077z"/>
				<path style="fill:#2C3A64;" d="M518.24,1234.137c-4.514-0.428,21.77-161.743,21.77-161.743l-21.984-189.449
					c-1.155-9.953,0.942-19.693,5.581-28.009c1.529,0.248,3.021,0.96,4.478,2.185c46.101,38.903,88.469,196.576,88.469,196.576
					S638.805,1181.266,518.24,1234.137z"/>
				<path style="fill:#BC6E39;" d="M511.39,904.253c0,0-39.258,148.16-32.069,175.41c7.189,27.25,83.607,90.329,96.345,94.462
					c8.788-5.133,12.236-13.02,9.182-24.263c0,0-58.144-80.196-53.204-88.86c10.641-18.659,53.204-127.959,53.204-127.959
					L511.39,904.253z"/>
				<path style="fill:#35488B;" d="M573.688,961.753c0,0-45.099,7.879-89.103-37.593c0,0,37.378-109.364,83.971-87.217
					C615.15,859.089,603.945,935.383,573.688,961.753z"/>
				<path style="fill:#BC6E39;" d="M584.849,1149.861c0,0,38.505,7.553,40.135,19.993c1.303,9.948-16.207,26.245-25.621,22.809
					c-9.415-3.438-23.696-18.539-23.696-18.539L584.849,1149.861z"/>
			</g>
			<g>
				<path style="fill:#2C3A64;" d="M1400.068,873.908c-36.628,14.798-45.748-10.634-56.607-17.751
					c-21.125-13.847-21.695-28.624-15.351-43.821c10.416-24.954-22.667-35.855-13.436-69.484
					c9.231-33.627,19.782-27.695,23.724-55.718c3.152-22.405,33.346-32.294,49.714-33.067c20.965-0.988,44.394-20.345,69.014-15.07
					c24.62,5.276,29.236,14.507,40.447,16.486c11.208,1.977,34.393-1.126,69.236,33.627c34.044,33.961,20.69,47.328,24.646,64.464
					c3.958,17.134,6.266,57.522-8.901,66.094c-15.167,8.574-23.23,40.095-39.068,40.887c-29.674,1.483-33.136,19.688-51.435,22.871
					c-14.197,2.469-20.44-5.727-43.117,5.812C1436.824,895.402,1416.386,867.313,1400.068,873.908z"/>
				<path style="fill:#A05A2B;" d="M1307.519,1300.138c0,0,63.994,453.906,56.611,509.948l40.388-4.902
					c0,0,50.544-198.141,44.467-253.587c-6.08-55.445,50.076-283.965-1.733-304.05
					C1395.44,1227.457,1307.519,1300.138,1307.519,1300.138z"/>
				<path style="fill:#BC6E39;" d="M1365.722,1300.684c0,0,91.289,454.329,87.37,510.721l39.951-9.232
					c0,0,38.839-204.251,29.359-259.217c-9.48-54.968,32.497-286.51-20.452-303.369
					C1449.001,1222.727,1365.722,1300.684,1365.722,1300.684z"/>
				<path style="fill:#2C3A64;" d="M1364.618,1802.112c0,0-9.598,17.624-27.881,21.714c-11.516,2.58-21.355,8.636-27.451,17.084
					c-5.15,7.141-0.073,17.115,8.733,17.063l92.915-0.529c7.912-0.045,14.048-6.907,13.211-14.774
					c-0.731-6.879-1.502-14.892-1.849-21.036c-0.764-13.417-15.299-25.469-15.299-25.469s-12.755,7.321-17.673,8.182
					C1378.618,1806.222,1364.618,1802.112,1364.618,1802.112z"/>
				<path style="fill:#35488B;" d="M1451.988,1802.112c0,0-9.598,17.624-27.881,21.714c-11.518,2.58-21.355,8.636-27.451,17.084
					c-5.152,7.141-0.073,17.115,8.733,17.063l92.915-0.529c7.912-0.045,14.048-6.907,13.211-14.774
					c-0.731-6.879-1.501-14.892-1.852-21.036c-0.764-13.417-15.297-25.469-15.297-25.469s-12.755,7.321-17.673,8.182
					C1465.989,1806.222,1451.988,1802.112,1451.988,1802.112z"/>
				<path style="fill:#BC6E39;" d="M1346.909,906.913c0,0-60.717,102.372-72.963,185.836c0,0,29.532,39.844,41.542,11.866
					C1327.5,1076.636,1413.707,926.859,1346.909,906.913z"/>
				<path style="fill:#2C3A64;" d="M1358.469,725.194c0.653-1.083,27.822-44.043,78.607-52.615
					c41.144-6.943,79.652,22.123,85.98,63.365c6.359,41.445-0.125,95.145-67.742,114.49L1358.469,725.194z"/>
				<path style="fill:#BC6E39;" d="M1370.907,909.864l76.517,45.453l19.338-53.861c0,0-8.868-19.626-11.447-51.022
					c-1.073-13.202-1.05-28.484,1.237-45.266l-66.536,28.896c0,0,1.156,6.053,1.627,14.914c0.492,9.57,0.168,22.412-3.308,34.408
					C1385.341,893.685,1380.032,903.362,1370.907,909.864z"/>
				<path style="fill:#FFB93E;" d="M1546.769,1389.582c-7.141-81.778-17.803-189.293-24.509-233.426
					c-2.216-14.559-2.334-29.357-0.336-43.937l15.746-116.12l4.947-36.439c2.61-19.286-8.092-37.921-26.035-45.438
					c-16.358-6.824-29.208-8.472-49.82-12.766c-12.8,11.554-36.824,28.217-63.155,23.074c-19.782-3.878-23.658-14.54-22.592-25.895
					c-5.025,0.494-9.674,1.047-13.965,1.641c-16.588,2.249-30.88,11.461-39.955,24.608c0-0.009-0.014-0.059-0.014-0.059
					l-0.322,0.551c-1.423,2.109-2.719,4.308-3.864,6.607l-29.085,49.735c0,0,2.811,17.311,17.103,25.29
					c-14.289,157.38-30.837,512.74-17.491,517.29c86.446,29.494,239.834-11.532,260.605-31.374
					C1555.078,1491.914,1551.794,1447.109,1546.769,1389.582z"/>
				<path style="fill:#A05A2B;" d="M1388.335,883.385c36.704,1.352,66.98-32.951,66.98-32.951l-63.672-1.457
					C1392.135,858.547,1391.811,871.389,1388.335,883.385z"/>
				<path style="fill:#BC6E39;" d="M1371.86,861.841c0,0,71.861,23.947,100.771-32.57c31.201-60.993,4.256-108.59-20.367-113.251
					c-49.104-9.295-79.054,7.749-89.021,27.143C1353.277,762.558,1332.187,848.987,1371.86,861.841z"/>
				<path style="fill:#FFFFFF;" d="M1402.915,830.964c0,0-3.537,7.344-22.549,1.884c0,0-15.961-4.578-13.582-12.984
					C1366.783,819.864,1383.813,817.277,1402.915,830.964z"/>
				<path style="fill:#FFA412;" d="M1546.769,1389.582c-2.275-2.632-147.732-172.341-152.972-262.625
					c-5.264-90.998,72.975-157.484,72.975-157.484c31.175-2.057,54.202,8.151,70.898,26.626l-15.746,116.12
					c-1.998,14.58-1.88,29.378,0.336,43.937C1528.966,1200.29,1539.628,1307.804,1546.769,1389.582z"/>
				<path style="fill:#2C3A64;" d="M1422.21,722.728c0,0-6.812,67.415,57.144,91.305c25.429,9.499,38.669-93.469-14.469-114.027
					c-53.138-20.56-105.54,3.857-111.804,39.799c-6.264,35.942-1.495,43.436-1.495,43.436S1376.459,714.863,1422.21,722.728z"/>
				<path style="fill:#BC6E39;" d="M1461.042,943.262c0,0-29.331,116.004-30.47,162.149c0,0-64.37,112.419-68.149,120.414
					c-3.781,7.997,23.235,18.924,23.235,18.924s80.752-86.12,96.318-122.312c15.568-36.195,70.785-153.878,48.688-189.007
					C1508.566,898.304,1461.042,943.262,1461.042,943.262z"/>
				<path style="fill:#BC6E39;" d="M1273.946,1092.749c0,0-5.765,79.021,50.473,141.277c0,0,15.351-18.479,13.415-24.216
					c-1.937-5.734-23.947-93.812-40.024-106.34C1281.733,1090.942,1273.946,1092.749,1273.946,1092.749z"/>
				<path style="fill:#BC6E39;" d="M1362.423,1225.825c0,0-35.997-0.262-38.004,8.201c-2.01,8.461,9.253,34.947,35.578,25.72
					c26.323-9.229,25.661-14.996,25.661-14.996L1362.423,1225.825z"/>
				<path style="fill:#BC6E39;" d="M1337.833,1209.809c0,0,28.917,13.365,19.092,27.604c-9.825,14.242-29.47,5.725-32.506-3.388
					C1321.38,1224.912,1337.833,1209.809,1337.833,1209.809z"/>
				<path style="fill:#FFB93E;" d="M1439.867,1004.468c0,0,37.746,35.112,95.947,29.674c0,0,28.681-101.648-17.314-114.126
					C1472.508,907.537,1434.501,967.781,1439.867,1004.468z"/>
			</g>
			<path style="fill:#2C3A64;" d="M719.736,683.564c-8.121-39.13-13.781-38.101-27.159-34.499
				c-13.378,3.602-5.145-16.465-19.038-12.864c-13.893,3.602-9.776,11.32-20.582,16.98c-10.805,5.66-19.198-12.349-31.467-2.058
				c-12.269,10.291,6.094,22.125,0,28.3c-6.094,6.174-26.43,6.689-24.237,14.407c2.192,7.718,14.767,19.572,11.052,24.45
				c-10.404-13.645-34.587,1.306-15.549,15.698c19.038,14.393,25.414,10.276,25.414,10.276
				c-4.318,18.523-0.983,36.924-17.058,36.214c-39.743-30.039-62.898-105.676-49.52-122.656
				c13.378-16.98,22.125-34.474,40.134-43.221c18.009-8.747-24.25-21.611,32.64-8.747c56.89,12.863,60.241,7.922,72.326,20.581
				c12.085,12.659,20.358,24.183,23.043,37.047C722.42,676.336,721.682,687.705,719.736,683.564z"/>
			<g>
				<g>
					<path style="fill:#82B378;" d="M1086.309,1106.891c-0.082-0.211-8.207-21.494-11.472-51.684
						c-3.015-27.881-2.394-69.307,17.691-108.321l1.83,0.942c-19.851,38.561-20.46,79.557-17.475,107.158
						c3.236,29.925,11.265,50.955,11.345,51.164L1086.309,1106.891z"/>
				</g>
				<path style="fill:#82B378;" d="M1075.649,1050.093c9.262-15.179,10.934-44.893,39.812-45.451
					c-14.494,12.778-24.018,19.895-29.221,30.186C1081.037,1045.119,1075.649,1050.093,1075.649,1050.093z"/>
				<path style="fill:#82B378;" d="M1079.208,1081.813c-17.837-13.54-24.698,3.954-34.474,8.242
					c-9.776,4.288-12.015,11.32-12.015,11.32c9.271-5.317,15.96-5.488,23.678-10.462c7.718-4.974,18.14-8.485,23.649-5.443
					C1079.397,1082.66,1079.208,1081.813,1079.208,1081.813z"/>
				<path style="fill:#B5453C;" d="M1141.828,928.536c-1.486-4.247-9.992-5.549-19.481-4.512
					c17.169-10.119,11.981-20.979,6.118-23.802c-4.054-1.952-10.99,3.142-16.966,10.585c4.985-19.295-6.362-23.307-12.504-21.157
					c-4.54,1.589-5.712,11.2-4.262,21.458c-8.86-19.151-20.467-14.74-23.791-8.996c-2.308,3.989,2.529,11.549,9.783,18.189
					c-17.857-5.559-22.471,5.112-20.83,11.263c1.186,4.444,9.922,6.371,19.725,5.946c-16.773,8.713-12.48,19.588-6.95,22.788
					c3.981,2.304,11.521-2.511,18.152-9.743c-5.7,18.021,5.026,22.676,11.199,21.028c4.256-1.137,6.204-9.199,5.989-18.49
					c9.886,15.597,20.258,10.523,23.008,4.813c1.946-4.041-3.109-10.947-10.514-16.91
					C1139.942,946.09,1143.984,934.696,1141.828,928.536z"/>
				<path style="fill:#FFB93E;" d="M1107.165,930.72c0,2.747-2.227,4.974-4.974,4.974c-2.747,0-4.974-2.227-4.974-4.974
					s2.227-4.974,4.974-4.974C1104.938,925.746,1107.165,927.973,1107.165,930.72z"/>
			</g>
			<path style="fill:#BC6E39;" d="M1087.056,985.745c-2.328-4.517-1.544-5.323-5.66-6.006c-4.116-0.683-12.521,5.148-9.09,9.608
				c3.43,4.459-3.953,11.375,1.195,15.296c8.067,6.143,11.24,10.774,11.926,6.658
				C1086.113,1007.184,1087.056,985.745,1087.056,985.745z"/>
		</g>
		<path style="fill:#2E3552;" d="M2079.407,1867.271H166.404c-1.675,0-3.046-1.371-3.046-3.046v-3.898
			c0-1.676,1.371-3.046,3.046-3.046h1913.003c1.676,0,3.047,1.371,3.047,3.047v3.897
			C2082.454,1865.9,2081.083,1867.271,2079.407,1867.271z"/>
		<path style="fill:#B1D0F3;" d="M851.494,632.434c-20.988-14.539-34.85,5.234-15.077,18.029
			c19.773,12.794,28.497,16.7,34.894,2.535c6.397-14.166,9.887-24.634-2.326-32.776C863.51,616.572,850.288,620.803,851.494,632.434
			z"/>
		<path style="fill:#B1D0F3;" d="M958.575,523.682c-34.072-34.155-66.557-2.111-34.15,28.389
			c32.407,30.5,47.295,40.724,63.999,16.566c16.703-24.158,26.746-42.43,6.811-61.713
			C986.298,498.28,960.283,501.653,958.575,523.682z"/>
		<path style="fill:#B1D0F3;" d="M889.827,353.873c-45.217-69.541-111.23-27.143-67.518,35.658
			c43.712,62.8,65.136,85.279,101.802,50.556c36.665-34.723,60.038-61.906,33.334-101.414
			C945.475,320.962,900.511,317.415,889.827,353.873z"/>
	</g>
</g>
</svg>
